<svg xmlns="http://www.w3.org/2000/svg" width="734" height="274" viewBox="0 0 734 274">
  <metadata><?xpacket begin="﻿" id="W5M0MpCehiHzreSzNTczkc9d"?>
<x:xmpmeta xmlns:x="adobe:ns:meta/" x:xmptk="Adobe XMP Core 5.6-c138 79.159824, 2016/09/14-01:09:01        ">
   <rdf:RDF xmlns:rdf="http://www.w3.org/1999/02/22-rdf-syntax-ns#">
      <rdf:Description rdf:about=""/>
   </rdf:RDF>
</x:xmpmeta>
                                                                                                    
                                                                                                    
                                                                                                    
                                                                                                    
                                                                                                    
                                                                                                    
                                                                                                    
                                                                                                    
                                                                                                    
                                                                                                    
                                                                                                    
                                                                                                    
                                                                                                    
                                                                                                    
                                                                                                    
                                                                                                    
                                                                                                    
                                                                                                    
                                                                                                    
                                                                                                    
                           
<?xpacket end="w"?></metadata>
<defs>
    <style>
      .cls-1 {
        fill: #e4f0fe;
      }

      .cls-1, .cls-2, .cls-3, .cls-4 {
        fill-rule: evenodd;
      }

      .cls-2 {
        fill: #90b8fe;
      }

      .cls-3 {
        fill: #4a76f9;
      }

      .cls-4 {
        fill: #1754d3;
      }
    </style>
  </defs>
  <path class="cls-1" d="M-3,154c6.75-21.148,226.45-41.54,317-23,109.7,22.46,216-56,286-95S709,13,752,20s-5,259-5,259l-765-5Z"/>
  <path class="cls-2" d="M-31,271s168-45,238-84,150.251,14.984,198,16c47,1,49.426-4.2,216-52,276.162-79.25,99,124,99,124Z"/>
  <path class="cls-3" d="M-19,278s47.758-104.619,282-40c203,56,137.734-67.692,270-111C646,90,682.023,265.177,753,265c125.761-.313-108.593,29.9-98.475,30.514Z"/>
  <path class="cls-4" d="M295,274s192.215-120.019,368-25c37,20,60,23,91,24S295,274,295,274Z"/>
</svg>
