<svg 
 xmlns="http://www.w3.org/2000/svg"
 xmlns:xlink="http://www.w3.org/1999/xlink"
 width="2.6cm" height="6.5cm">
<path fill-rule="evenodd"  fill="rgb(0, 0, 0)"
 d="M65.298,243.451 C65.278,243.448 65.259,243.445 65.240,243.442 L66.923,173.899 C70.750,173.818 75.524,173.718 80.818,173.606 C86.047,173.497 92.107,175.192 93.991,180.496 L95.488,227.408 C95.745,243.696 87.410,246.096 65.298,243.451 ZM66.427,67.769 L63.364,1.563 C72.427,0.240 78.830,1.043 78.830,1.043 C82.654,1.061 88.488,8.298 88.615,11.997 L90.210,61.990 C89.157,64.843 87.896,66.671 86.460,67.812 C78.494,66.951 71.889,67.052 66.427,67.769 ZM43.672,83.201 C41.665,86.392 39.564,89.739 38.440,93.579 C38.032,94.974 37.974,96.427 37.603,97.767 C36.549,101.552 33.987,105.077 33.603,109.186 C31.403,111.552 34.844,113.524 35.251,116.300 C35.381,117.187 35.025,117.818 35.506,118.842 C34.727,119.834 34.501,120.946 33.938,122.153 C33.589,122.902 33.204,123.632 32.822,124.415 C31.374,127.382 30.409,130.888 28.728,133.516 C27.743,135.043 26.492,136.220 26.086,137.724 C25.679,139.236 27.154,141.229 27.882,141.748 C29.536,142.931 32.577,142.462 34.156,143.374 C36.435,144.691 35.795,150.214 35.530,152.742 C36.549,154.508 38.679,154.754 40.505,155.420 C40.261,156.664 39.456,157.476 39.040,158.593 C39.470,161.235 43.668,162.637 44.294,164.798 C44.663,166.067 43.946,167.307 43.957,168.284 C43.996,170.740 45.169,173.005 46.785,174.364 C49.755,176.871 55.406,175.851 60.089,175.395 C60.349,175.369 60.621,175.281 60.889,175.219 L59.262,242.451 C21.699,234.717 -1.573,197.099 0.588,98.889 C0.904,84.536 3.174,64.001 11.711,42.863 C22.494,16.165 42.146,6.245 57.409,2.688 L60.472,68.886 C40.861,73.805 40.696,87.519 43.672,83.201 Z"/>
</svg>